<svg xmlns="http://www.w3.org/2000/svg" xmlns:xlink="http://www.w3.org/1999/xlink" width="2000" zoomAndPan="magnify" viewBox="0 0 1500 1499.999933" height="2000" preserveAspectRatio="xMidYMid meet" version="1.0"><defs><clipPath id="ae454c29e3"><path d="M 127.003906 127.003906 L 1372.753906 127.003906 L 1372.753906 1372.753906 L 127.003906 1372.753906 Z M 127.003906 127.003906 " clip-rule="nonzero"/></clipPath><clipPath id="e2047b39c6"><path d="M 0 0 L 28.105469 0 L 28.105469 25.101562 L 0 25.101562 Z M 0 0 " clip-rule="nonzero"/></clipPath><clipPath id="6963fe80c4"><path d="M 0 0 L 28.105469 0 L 28.105469 25.101562 L 0 25.101562 Z M 0 0 " clip-rule="nonzero"/></clipPath><clipPath id="d207845daf"><rect x="0" width="29" y="0" height="26"/></clipPath></defs><g clip-path="url(#ae454c29e3)"><path stroke-linecap="butt" transform="matrix(0.629485, 0, 0, 0.629485, 127.004041, 127.003987)" fill="none" stroke-linejoin="miter" d="M 1913.501068 989.4999 C 1913.501068 1004.62264 1913.12874 1019.732968 1912.384083 1034.837091 C 1911.645632 1049.941215 1910.534852 1065.020516 1909.051743 1080.06879 C 1907.568635 1095.117064 1905.719404 1110.121899 1903.497844 1125.077091 C 1901.28249 1140.038489 1898.694808 1154.931626 1895.747208 1169.762708 C 1892.793402 1184.59379 1889.485885 1199.344202 1885.806039 1214.013942 C 1882.132398 1228.683682 1878.105046 1243.254134 1873.71157 1257.725299 C 1869.3243 1272.196464 1864.583318 1286.549725 1859.488624 1300.785082 C 1854.39393 1315.026644 1848.95173 1329.125481 1843.162023 1343.100207 C 1837.378521 1357.068729 1831.253719 1370.888319 1824.787615 1384.558978 C 1818.321511 1398.229637 1811.526517 1411.732748 1804.396428 1425.068311 C 1797.266339 1438.403874 1789.813565 1451.559478 1782.038106 1464.528919 C 1774.268853 1477.498359 1766.176915 1490.275429 1757.774703 1502.847719 C 1749.378697 1515.420009 1740.672418 1527.781313 1731.66207 1539.925425 C 1722.657927 1552.069537 1713.355922 1563.990253 1703.76226 1575.681365 C 1694.168597 1587.366272 1684.295688 1598.815372 1674.137328 1610.022457 C 1663.985173 1621.223337 1653.559977 1632.175999 1642.867945 1642.86803 C 1632.175914 1653.560061 1621.223253 1663.985257 1610.022372 1674.137412 C 1598.815287 1684.295773 1587.366188 1694.168682 1575.68128 1703.762344 C 1563.990168 1713.356007 1552.069453 1722.658012 1539.92534 1731.662154 C 1527.781228 1740.672502 1515.419924 1749.378782 1502.847635 1757.774788 C 1490.275345 1766.177 1477.498274 1774.268937 1464.528834 1782.038191 C 1451.559394 1789.813649 1438.403789 1797.266423 1425.068226 1804.396513 C 1411.732663 1811.526602 1398.229552 1818.321596 1384.558893 1824.7877 C 1370.888234 1831.253803 1357.068644 1837.378606 1343.100123 1843.162108 C 1329.131601 1848.951815 1315.026559 1854.394015 1300.784997 1859.488709 C 1286.54964 1864.583403 1272.196379 1869.324385 1257.725214 1873.711655 C 1243.254049 1878.10513 1228.683597 1882.132483 1214.013857 1885.806123 C 1199.344117 1889.485969 1184.593706 1892.793487 1169.762623 1895.747292 C 1154.931541 1898.694892 1140.038404 1901.282575 1125.077007 1903.497929 C 1110.121815 1905.719489 1095.116979 1907.56872 1080.068705 1909.051828 C 1065.020431 1910.534936 1049.94113 1911.645716 1034.837007 1912.384168 C 1019.732883 1913.128825 1004.622555 1913.501153 989.499815 1913.501153 C 974.377076 1913.501153 959.266747 1913.128825 944.162624 1912.384168 C 929.0585 1911.645716 913.979199 1910.534936 898.930925 1909.051828 C 883.882651 1907.56872 868.877816 1905.719489 853.922624 1903.497929 C 838.961226 1901.282575 824.068089 1898.694892 809.237007 1895.747292 C 794.405925 1892.793487 779.655513 1889.485969 764.985773 1885.806123 C 750.316033 1882.132483 735.745581 1878.10513 721.274416 1873.711655 C 706.803251 1869.324385 692.44999 1864.583403 678.214633 1859.488709 C 663.973071 1854.394015 649.874235 1848.951815 635.899508 1843.162108 C 621.930986 1837.378606 608.111396 1831.253803 594.440737 1824.7877 C 580.770078 1818.321596 567.266967 1811.526602 553.931404 1804.396513 C 540.595841 1797.266423 527.440237 1789.813649 514.470796 1782.038191 C 501.501356 1774.268937 488.724286 1766.177 476.151996 1757.774788 C 463.579706 1749.378782 451.218402 1740.672502 439.07429 1731.662154 C 426.930178 1722.658012 415.009462 1713.356007 403.31835 1703.762344 C 391.633443 1694.168682 380.184344 1684.295773 368.977258 1674.137412 C 357.776378 1663.985257 346.823716 1653.560061 336.131685 1642.86803 C 325.439654 1632.175999 315.014458 1621.223337 304.862303 1610.022457 C 294.703942 1598.815372 284.831033 1587.366272 275.237371 1575.681365 C 265.643708 1563.990253 256.341703 1552.069537 247.337561 1539.925425 C 238.327213 1527.781313 229.620933 1515.420009 221.224927 1502.847719 C 212.822715 1490.275429 204.730778 1477.498359 196.961524 1464.528919 C 189.186066 1451.559478 181.733292 1438.403874 174.603202 1425.068311 C 167.479318 1411.732748 160.678119 1398.229637 154.212015 1384.558978 C 147.745912 1370.888319 141.621109 1357.068729 135.837608 1343.100207 C 130.0479 1329.125481 124.6057 1315.026644 119.511006 1300.785082 C 114.416312 1286.549725 109.67533 1272.196464 105.28806 1257.725299 C 100.894585 1243.254134 96.867232 1228.683682 93.193592 1214.013942 C 89.513746 1199.344202 86.206228 1184.59379 83.252423 1169.762708 C 80.304823 1154.931626 77.71714 1140.038489 75.501786 1125.077091 C 73.280226 1110.121899 71.430995 1095.117064 69.947887 1080.06879 C 68.464779 1065.020516 67.353999 1049.941215 66.615547 1034.837091 C 65.870891 1019.732968 65.498562 1004.62264 65.498562 989.4999 C 65.498562 974.37716 65.870891 959.266832 66.615547 944.162708 C 67.353999 929.058585 68.464779 913.979284 69.947887 898.93101 C 71.430995 883.882736 73.280226 868.8779 75.501786 853.922709 C 77.71714 838.961311 80.304823 824.068174 83.252423 809.237092 C 86.206228 794.406009 89.513746 779.655598 93.193592 764.985858 C 96.867232 750.316118 100.894585 735.745666 105.28806 721.274501 C 109.67533 706.803336 114.416312 692.450075 119.511006 678.214718 C 124.6057 663.973156 130.0479 649.874319 135.837608 635.899592 C 141.621109 621.931071 147.745912 608.111481 154.212015 594.440822 C 160.678119 580.770163 167.479318 567.267052 174.603202 553.931489 C 181.733292 540.595926 189.186066 527.440321 196.961524 514.470881 C 204.730778 501.501441 212.822715 488.72437 221.224927 476.15208 C 229.620933 463.579791 238.327213 451.218487 247.337561 439.074375 C 256.341703 426.930262 265.643708 415.009547 275.237371 403.318435 C 284.831033 391.633527 294.703942 380.184428 304.862303 368.977343 C 315.014458 357.776462 325.439654 346.823801 336.131685 336.13177 C 346.823716 325.439739 357.776378 315.014543 368.977258 304.862387 C 380.184344 294.704027 391.633443 284.831118 403.31835 275.237456 C 415.009462 265.643793 426.930178 256.341788 439.07429 247.337645 C 451.218402 238.327297 463.579706 229.621018 476.151996 221.225012 C 488.724286 212.8228 501.501356 204.730862 514.470796 196.961609 C 527.440237 189.18615 540.595841 181.733376 553.931404 174.603287 C 567.266967 167.473198 580.770078 160.678204 594.440737 154.2121 C 608.111396 147.745996 621.930986 141.621194 635.899508 135.837692 C 649.874235 130.047985 663.973071 124.605785 678.214633 119.511091 C 692.44999 114.416397 706.803251 109.675415 721.274416 105.288145 C 735.745581 100.894669 750.316033 96.867317 764.985773 93.193676 C 779.655513 89.51383 794.405925 86.206313 809.237007 83.252507 C 824.068089 80.304907 838.961226 77.717225 853.922624 75.501871 C 868.877816 73.280311 883.882651 71.43108 898.930925 69.947972 C 913.979199 68.464863 929.0585 67.354084 944.162624 66.615632 C 959.266747 65.870975 974.377076 65.498647 989.499815 65.498647 C 1004.622555 65.498647 1019.732883 65.870975 1034.837007 66.615632 C 1049.94113 67.354084 1065.020431 68.464863 1080.068705 69.947972 C 1095.116979 71.43108 1110.121815 73.280311 1125.077007 75.501871 C 1140.038404 77.717225 1154.931541 80.304907 1169.762623 83.252507 C 1184.593706 86.206313 1199.344117 89.51383 1214.013857 93.193676 C 1228.683597 96.867317 1243.254049 100.894669 1257.725214 105.288145 C 1272.196379 109.675415 1286.54964 114.416397 1300.784997 119.511091 C 1315.026559 124.605785 1329.131601 130.047985 1343.100123 135.837692 C 1357.068644 141.621194 1370.888234 147.745996 1384.558893 154.2121 C 1398.229552 160.678204 1411.732663 167.473198 1425.068226 174.603287 C 1438.403789 181.733376 1451.559394 189.18615 1464.528834 196.961609 C 1477.498274 204.730862 1490.275345 212.8228 1502.847635 221.225012 C 1515.419924 229.621018 1527.781228 238.327297 1539.92534 247.337645 C 1552.069453 256.341788 1563.990168 265.643793 1575.68128 275.237456 C 1587.366188 284.831118 1598.815287 294.704027 1610.022372 304.862387 C 1621.223253 315.014543 1632.175914 325.439739 1642.867945 336.13177 C 1653.559977 346.823801 1663.985173 357.776462 1674.137328 368.977343 C 1684.295688 380.184428 1694.168597 391.633527 1703.76226 403.318435 C 1713.355922 415.009547 1722.657927 426.930262 1731.66207 439.074375 C 1740.672418 451.218487 1749.378697 463.579791 1757.774703 476.15208 C 1766.176915 488.72437 1774.268853 501.501441 1782.038106 514.470881 C 1789.813565 527.440321 1797.266339 540.595926 1804.396428 553.931489 C 1811.526517 567.267052 1818.321511 580.770163 1824.787615 594.440822 C 1831.253719 608.111481 1837.378521 621.931071 1843.162023 635.899592 C 1848.95173 649.874319 1854.39393 663.973156 1859.488624 678.214718 C 1864.583318 692.450075 1869.3243 706.803336 1873.71157 721.274501 C 1878.105046 735.745666 1882.132398 750.316118 1885.806039 764.985858 C 1889.485885 779.655598 1892.793402 794.406009 1895.747208 809.237092 C 1898.694808 824.068174 1901.28249 838.961311 1903.497844 853.922709 C 1905.719404 868.8779 1907.568635 883.882736 1909.051743 898.93101 C 1910.534852 913.979284 1911.645632 929.058585 1912.384083 944.162708 C 1913.12874 959.266832 1913.501068 974.37716 1913.501068 989.4999 Z M 1913.501068 989.4999 " stroke="#fffefe" stroke-width="131" stroke-opacity="1" stroke-miterlimit="4"/></g><path fill="#ffffff" d="M 378.796875 885.085938 L 378.796875 554.03125 L 708.386719 820.332031 C 720.070312 830.558594 735.164062 835.910156 749.769531 835.910156 C 764.375 835.910156 779.464844 830.558594 791.148438 820.332031 L 1120.738281 554.03125 L 1120.738281 885.085938 C 1120.738281 943.015625 1073.515625 990.242188 1015.585938 990.242188 L 483.957031 990.242188 C 426.019531 990.242188 378.796875 943.015625 378.796875 885.085938 Z M 754.148438 776.519531 L 755.125 775.542969 L 1084.230469 509.730469 L 415.796875 509.730469 L 745.875 776.519531 C 748.308594 778.464844 751.714844 778.464844 754.148438 776.519531 Z M 754.148438 776.519531 " fill-opacity="1" fill-rule="nonzero"/><g clip-path="url(#e2047b39c6)"><g transform="matrix(1, 0, 0, 1, 0, 0.000000000000112861)"><g clip-path="url(#d207845daf)"><g clip-path="url(#6963fe80c4)"><path fill="#000000" d="M -421.894531 -424.898438 L 28.105469 -424.898438 L 28.105469 25.101562 L -421.894531 25.101562 Z M -421.894531 -424.898438 " fill-opacity="1" fill-rule="nonzero"/></g></g></g></g></svg>