<svg xmlns="http://www.w3.org/2000/svg" xmlns:xlink="http://www.w3.org/1999/xlink" width="2000" zoomAndPan="magnify" viewBox="0 0 1500 1499.999933" height="2000" preserveAspectRatio="xMidYMid meet" version="1.0"><defs><clipPath id="6ab4409bd6"><path d="M 0 0 L 28.105469 0 L 28.105469 25.101562 L 0 25.101562 Z M 0 0 " clip-rule="nonzero"/></clipPath><clipPath id="eb3271be7e"><path d="M 0 0 L 28.105469 0 L 28.105469 25.101562 L 0 25.101562 Z M 0 0 " clip-rule="nonzero"/></clipPath><clipPath id="8fa26225df"><rect x="0" width="29" y="0" height="26"/></clipPath><clipPath id="c89c80e0b2"><path d="M 127.140625 139 L 1340 139 L 1340 1353 L 127.140625 1353 Z M 127.140625 139 " clip-rule="nonzero"/></clipPath></defs><g clip-path="url(#6ab4409bd6)"><g transform="matrix(1, 0, 0, 1, 0, 0.000000000000112861)"><g clip-path="url(#8fa26225df)"><g clip-path="url(#eb3271be7e)"><path fill="#000000" d="M -421.894531 -424.898438 L 28.105469 -424.898438 L 28.105469 25.101562 L -421.894531 25.101562 Z M -421.894531 -424.898438 " fill-opacity="1" fill-rule="nonzero"/></g></g></g></g><g clip-path="url(#c89c80e0b2)"><path fill="#ffffff" d="M 1159.917969 1172.648438 L 980.339844 1172.648438 L 980.339844 891.292969 C 980.339844 824.226562 979.140625 737.835938 886.949219 737.835938 C 794.761719 737.835938 779.101562 810.960938 779.101562 886.429688 L 779.101562 1172.648438 L 599.523438 1172.648438 L 599.523438 594.039062 L 771.957031 594.039062 L 771.957031 673.113281 L 774.355469 673.113281 C 809.507812 612.964844 874.890625 577.058594 944.449219 579.632812 C 1126.484375 579.632812 1160.035156 699.414062 1160.035156 855.214844 L 1160.035156 1172.648438 Z M 396.796875 514.96875 C 339.242188 514.96875 292.546875 468.3125 292.546875 410.738281 C 292.546875 353.164062 339.183594 306.453125 396.738281 306.453125 C 454.292969 306.453125 500.988281 353.105469 500.988281 410.679688 C 500.988281 468.253906 454.351562 514.96875 396.796875 514.96875 M 486.644531 1172.648438 L 306.835938 1172.648438 L 306.835938 594.039062 L 486.644531 594.039062 Z M 1249.480469 139.558594 L 216.589844 139.558594 C 167.777344 139.042969 127.714844 178.152344 127.140625 226.976562 L 127.140625 1264.527344 C 127.714844 1313.414062 167.722656 1352.519531 216.589844 1352.003906 L 1249.480469 1352.003906 C 1298.402344 1352.632812 1338.582031 1313.46875 1339.269531 1264.527344 L 1339.269531 226.921875 C 1338.582031 177.980469 1298.402344 138.871094 1249.480469 139.5 " fill-opacity="1" fill-rule="nonzero"/></g></svg>