<svg xmlns="http://www.w3.org/2000/svg" xmlns:xlink="http://www.w3.org/1999/xlink" width="2000" zoomAndPan="magnify" viewBox="0 0 1500 1499.999933" height="2000" preserveAspectRatio="xMidYMid meet" version="1.0"><defs><clipPath id="3dece41d81"><path d="M 0 0 L 28.105469 0 L 28.105469 25.101562 L 0 25.101562 Z M 0 0 " clip-rule="nonzero"/></clipPath><clipPath id="9b30abcc9a"><path d="M 0 0 L 28.105469 0 L 28.105469 25.101562 L 0 25.101562 Z M 0 0 " clip-rule="nonzero"/></clipPath><clipPath id="7aa1ba5802"><rect x="0" width="29" y="0" height="26"/></clipPath><clipPath id="90310554df"><path d="M 144.25 144.25 L 1355.5 144.25 L 1355.5 1355.5 L 144.25 1355.5 Z M 144.25 144.25 " clip-rule="nonzero"/></clipPath></defs><g clip-path="url(#3dece41d81)"><g transform="matrix(1, 0, 0, 1, 0, 0.000000000000112861)"><g clip-path="url(#7aa1ba5802)"><g clip-path="url(#9b30abcc9a)"><path fill="#000000" d="M -421.894531 -424.898438 L 28.105469 -424.898438 L 28.105469 25.101562 L -421.894531 25.101562 Z M -421.894531 -424.898438 " fill-opacity="1" fill-rule="nonzero"/></g></g></g></g><g clip-path="url(#90310554df)"><path fill="#ffffff" d="M 749.902344 144.296875 C 415.414062 144.296875 144.265625 415.460938 144.265625 749.929688 C 144.265625 1084.402344 415.429688 1355.566406 749.902344 1355.566406 C 1084.375 1355.566406 1355.539062 1084.402344 1355.539062 749.929688 C 1355.539062 415.460938 1084.375 144.296875 749.902344 144.296875 Z M 1044.21875 999.078125 L 1026.011719 1024.179688 C 1003.859375 1051.738281 981.722656 1067.980469 941.855469 1075.839844 C 816.359375 1099.960938 674.625 994.652344 587.503906 892.277344 L 586.519531 891.292969 C 499.414062 788.933594 418.207031 631.941406 462.023438 511.851562 C 476.296875 473.476562 495.976562 454.273438 526.484375 437.054688 L 554.535156 423.273438 C 569.792969 415.390625 588.996094 421.308594 596.859375 436.5625 L 673.644531 577.3125 C 682 592.566406 676.59375 611.753906 661.335938 620.621094 L 628.84375 639.316406 C 620.488281 644.25 613.589844 650.148438 607.691406 657.535156 C 581.605469 690.011719 596.859375 735.777344 669.203125 820.917969 L 670.183594 821.898438 C 742.527344 906.546875 785.359375 929.191406 821.769531 908.515625 C 830.140625 904.089844 837.023438 897.699219 842.9375 890.308594 L 866.550781 861.273438 C 877.378906 847.492188 897.566406 845.527344 911.332031 856.359375 L 1037.8125 954.785156 C 1051.589844 965.617188 1054.554688 984.804688 1044.21875 999.078125 Z M 1044.21875 999.078125 " fill-opacity="1" fill-rule="nonzero"/></g></svg>